<?xml version="1.0" encoding="UTF-8" standalone="no"?><svg xmlns="http://www.w3.org/2000/svg" xmlns:xlink="http://www.w3.org/1999/xlink" contentScriptType="application/ecmascript" contentStyleType="text/css" height="427px" preserveAspectRatio="none" style="width:1710px;height:427px;" version="1.1" viewBox="0 0 1710 427" width="1710px" zoomAndPan="magnify"><defs><filter height="300%" id="fxjuqh326pc24" width="300%" x="-1" y="-1"><feGaussianBlur result="blurOut" stdDeviation="2.0"/><feColorMatrix in="blurOut" result="blurOut2" type="matrix" values="0 0 0 0 0 0 0 0 0 0 0 0 0 0 0 0 0 0 .4 0"/><feOffset dx="4.0" dy="4.0" in="blurOut2" result="blurOut3"/><feBlend in="SourceGraphic" in2="blurOut3" mode="normal"/></filter></defs><g><!--MD5=[579ccc227b8905947db5f8f098223f57]
class NameCard--><rect codeLine="1" fill="#FEFECE" filter="url(#fxjuqh326pc24)" height="192.7109" id="NameCard" style="stroke: #A80036; stroke-width: 1.5;" width="299" x="388" y="7"/><ellipse cx="502.75" cy="27.0938" fill="#ADD1B2" rx="11" ry="11" style="stroke: #A80036; stroke-width: 1.0;"/><path d="M505.5156,22.9688 Q505.6719,22.75 505.8594,22.6406 Q506.0469,22.5313 506.2656,22.5313 Q506.6406,22.5313 506.875,22.7969 Q507.1094,23.0469 507.1094,23.6563 L507.1094,25.1094 Q507.1094,25.7188 506.875,25.9844 Q506.6406,26.25 506.2656,26.25 Q505.9219,26.25 505.7188,26.0469 Q505.5156,25.8594 505.4063,25.3438 Q505.3594,24.9844 505.1719,24.7969 Q504.8438,24.4219 504.2344,24.2031 Q503.625,23.9844 503,23.9844 Q502.2344,23.9844 501.5938,24.3125 Q500.9688,24.6406 500.4688,25.3906 Q499.9844,26.1406 499.9844,27.1719 L499.9844,28.2656 Q499.9844,29.5 500.875,30.3281 Q501.7656,31.1406 503.3594,31.1406 Q504.2969,31.1406 504.9531,30.8906 Q505.3438,30.7344 505.7656,30.2969 Q506.0313,30.0313 506.1719,29.9531 Q506.3281,29.875 506.5313,29.875 Q506.8594,29.875 507.1094,30.1406 Q507.375,30.3906 507.375,30.7344 Q507.375,31.0781 507.0313,31.4844 Q506.5313,32.0625 505.7344,32.3906 Q504.6563,32.8438 503.3594,32.8438 Q501.8438,32.8438 500.6406,32.2188 Q499.6563,31.7188 498.9688,30.6563 Q498.2813,29.5781 498.2813,28.2969 L498.2813,27.1406 Q498.2813,25.8125 498.8906,24.6719 Q499.5156,23.5156 500.6094,22.9063 Q501.7031,22.2813 502.9375,22.2813 Q503.6719,22.2813 504.3125,22.4531 Q504.9688,22.6094 505.5156,22.9688 Z "/><text fill="#000000" font-family="sans-serif" font-size="12" font-style="italic" lengthAdjust="spacingAndGlyphs" textLength="56" x="525.75" y="24.457">«@Entity»</text><text fill="#000000" font-family="sans-serif" font-size="12" lengthAdjust="spacingAndGlyphs" textLength="61" x="523.25" y="39.5508">NameCard</text><line style="stroke: #A80036; stroke-width: 1.5;" x1="389" x2="686" y1="47.1875" y2="47.1875"/><rect fill="none" height="6" style="stroke: #C82930; stroke-width: 1.0;" width="6" x="396" y="55.1875"/><text fill="#000000" font-family="sans-serif" font-size="11" lengthAdjust="spacingAndGlyphs" textLength="50" x="408" y="62.6064">id : Integer</text><rect fill="none" height="6" style="stroke: #C82930; stroke-width: 1.0;" width="6" x="396" y="69.0234"/><text fill="#000000" font-family="sans-serif" font-size="11" lengthAdjust="spacingAndGlyphs" textLength="63" x="408" y="76.4424">name : String</text><rect fill="none" height="6" style="stroke: #C82930; stroke-width: 1.0;" width="6" x="396" y="82.8594"/><text fill="#000000" font-family="sans-serif" font-size="11" lengthAdjust="spacingAndGlyphs" textLength="90" x="408" y="90.2783">description : String</text><rect fill="none" height="6" style="stroke: #C82930; stroke-width: 1.0;" width="6" x="396" y="96.6953"/><text fill="#000000" font-family="sans-serif" font-size="11" lengthAdjust="spacingAndGlyphs" textLength="81" x="408" y="104.1143">gender : boolean</text><line style="stroke: #A80036; stroke-width: 1.0;" x1="389" x2="686" y1="110.5313" y2="110.5313"/><ellipse cx="399" cy="121.5313" fill="#84BE84" rx="3" ry="3" style="stroke: #038048; stroke-width: 1.0;"/><text fill="#000000" font-family="sans-serif" font-size="11" lengthAdjust="spacingAndGlyphs" textLength="58" x="408" y="125.9502">NameCard()</text><ellipse cx="399" cy="135.3672" fill="#84BE84" rx="3" ry="3" style="stroke: #038048; stroke-width: 1.0;"/><text fill="#000000" font-family="sans-serif" font-size="11" lengthAdjust="spacingAndGlyphs" textLength="273" x="408" y="139.7861">NameCard(id : Integer, name : String, description : String)</text><ellipse cx="399" cy="167.0391" fill="#84BE84" rx="3" ry="3" style="stroke: #038048; stroke-width: 1.0;"/><text fill="#000000" font-family="sans-serif" font-size="11" lengthAdjust="spacingAndGlyphs" textLength="79" x="408" y="171.458">getGender() : int</text><line style="stroke: #A80036; stroke-width: 1.0; stroke-dasharray: 1.0,2.0;" x1="389" x2="502" y1="153.1211" y2="153.1211"/><text fill="#000000" font-family="sans-serif" font-size="11" lengthAdjust="spacingAndGlyphs" textLength="71" x="502" y="157.1221">Modified getter</text><line style="stroke: #A80036; stroke-width: 1.0; stroke-dasharray: 1.0,2.0;" x1="573" x2="686" y1="153.1211" y2="153.1211"/><line style="stroke: #A80036; stroke-width: 1.0;" x1="389" x2="686" y1="177.875" y2="177.875"/><ellipse cx="399" cy="188.875" fill="none" rx="3" ry="3" style="stroke: #038048; stroke-width: 1.0;"/><text fill="#000000" font-family="sans-serif" font-size="11" lengthAdjust="spacingAndGlyphs" textLength="101" x="408" y="193.2939">[Getters and Setters]</text><!--MD5=[dcaa4217fbbbe1806e684b1b1a666718]
class NameController--><rect codeLine="15" fill="#FEFECE" filter="url(#fxjuqh326pc24)" height="111.5313" id="NameController" style="stroke: #A80036; stroke-width: 1.5;" width="377" x="7" y="280.5"/><ellipse cx="147.25" cy="300.5938" fill="#ADD1B2" rx="11" ry="11" style="stroke: #A80036; stroke-width: 1.0;"/><path d="M150.0156,296.4688 Q150.1719,296.25 150.3594,296.1406 Q150.5469,296.0313 150.7656,296.0313 Q151.1406,296.0313 151.375,296.2969 Q151.6094,296.5469 151.6094,297.1563 L151.6094,298.6094 Q151.6094,299.2188 151.375,299.4844 Q151.1406,299.75 150.7656,299.75 Q150.4219,299.75 150.2188,299.5469 Q150.0156,299.3594 149.9063,298.8438 Q149.8594,298.4844 149.6719,298.2969 Q149.3438,297.9219 148.7344,297.7031 Q148.125,297.4844 147.5,297.4844 Q146.7344,297.4844 146.0938,297.8125 Q145.4688,298.1406 144.9688,298.8906 Q144.4844,299.6406 144.4844,300.6719 L144.4844,301.7656 Q144.4844,303 145.375,303.8281 Q146.2656,304.6406 147.8594,304.6406 Q148.7969,304.6406 149.4531,304.3906 Q149.8438,304.2344 150.2656,303.7969 Q150.5313,303.5313 150.6719,303.4531 Q150.8281,303.375 151.0313,303.375 Q151.3594,303.375 151.6094,303.6406 Q151.875,303.8906 151.875,304.2344 Q151.875,304.5781 151.5313,304.9844 Q151.0313,305.5625 150.2344,305.8906 Q149.1563,306.3438 147.8594,306.3438 Q146.3438,306.3438 145.1406,305.7188 Q144.1563,305.2188 143.4688,304.1563 Q142.7813,303.0781 142.7813,301.7969 L142.7813,300.6406 Q142.7813,299.3125 143.3906,298.1719 Q144.0156,297.0156 145.1094,296.4063 Q146.2031,295.7813 147.4375,295.7813 Q148.1719,295.7813 148.8125,295.9531 Q149.4688,296.1094 150.0156,296.4688 Z "/><text fill="#000000" font-family="sans-serif" font-size="12" font-style="italic" lengthAdjust="spacingAndGlyphs" textLength="80" x="171.75" y="297.957">«@Controller»</text><text fill="#000000" font-family="sans-serif" font-size="12" lengthAdjust="spacingAndGlyphs" textLength="88" x="167.75" y="313.0508">NameController</text><line style="stroke: #A80036; stroke-width: 1.5;" x1="8" x2="383" y1="320.6875" y2="320.6875"/><rect fill="none" height="6" style="stroke: #C82930; stroke-width: 1.0;" width="6" x="15" y="328.6875"/><text fill="#000000" font-family="sans-serif" font-size="11" lengthAdjust="spacingAndGlyphs" textLength="128" x="27" y="336.1064">userService : UserService</text><rect fill="none" height="6" style="stroke: #C82930; stroke-width: 1.0;" width="6" x="15" y="342.5234"/><text fill="#000000" font-family="sans-serif" font-size="11" lengthAdjust="spacingAndGlyphs" textLength="136" x="27" y="349.9424">nameService : NameService</text><line style="stroke: #A80036; stroke-width: 1.5;" x1="8" x2="383" y1="356.3594" y2="356.3594"/><ellipse cx="18" cy="367.3594" fill="#84BE84" rx="3" ry="3" style="stroke: #038048; stroke-width: 1.0;"/><text fill="#000000" font-family="sans-serif" font-size="11" lengthAdjust="spacingAndGlyphs" textLength="351" x="27" y="371.7783">NameController(userService : UserService, nameService : NameService)</text><ellipse cx="18" cy="381.1953" fill="#84BE84" rx="3" ry="3" style="stroke: #038048; stroke-width: 1.0;"/><text fill="#000000" font-family="sans-serif" font-size="11" lengthAdjust="spacingAndGlyphs" textLength="276" x="27" y="385.6143">SwipeNames(model: Model, session HttpSession) : String</text><!--MD5=[3f908ccd3a2056432adfb9e2b53696ab]
class HomeController--><rect codeLine="22" fill="#FEFECE" filter="url(#fxjuqh326pc24)" height="111.5313" id="HomeController" style="stroke: #A80036; stroke-width: 1.5;" width="377" x="419" y="280.5"/><ellipse cx="559.25" cy="300.5938" fill="#ADD1B2" rx="11" ry="11" style="stroke: #A80036; stroke-width: 1.0;"/><path d="M562.0156,296.4688 Q562.1719,296.25 562.3594,296.1406 Q562.5469,296.0313 562.7656,296.0313 Q563.1406,296.0313 563.375,296.2969 Q563.6094,296.5469 563.6094,297.1563 L563.6094,298.6094 Q563.6094,299.2188 563.375,299.4844 Q563.1406,299.75 562.7656,299.75 Q562.4219,299.75 562.2188,299.5469 Q562.0156,299.3594 561.9063,298.8438 Q561.8594,298.4844 561.6719,298.2969 Q561.3438,297.9219 560.7344,297.7031 Q560.125,297.4844 559.5,297.4844 Q558.7344,297.4844 558.0938,297.8125 Q557.4688,298.1406 556.9688,298.8906 Q556.4844,299.6406 556.4844,300.6719 L556.4844,301.7656 Q556.4844,303 557.375,303.8281 Q558.2656,304.6406 559.8594,304.6406 Q560.7969,304.6406 561.4531,304.3906 Q561.8438,304.2344 562.2656,303.7969 Q562.5313,303.5313 562.6719,303.4531 Q562.8281,303.375 563.0313,303.375 Q563.3594,303.375 563.6094,303.6406 Q563.875,303.8906 563.875,304.2344 Q563.875,304.5781 563.5313,304.9844 Q563.0313,305.5625 562.2344,305.8906 Q561.1563,306.3438 559.8594,306.3438 Q558.3438,306.3438 557.1406,305.7188 Q556.1563,305.2188 555.4688,304.1563 Q554.7813,303.0781 554.7813,301.7969 L554.7813,300.6406 Q554.7813,299.3125 555.3906,298.1719 Q556.0156,297.0156 557.1094,296.4063 Q558.2031,295.7813 559.4375,295.7813 Q560.1719,295.7813 560.8125,295.9531 Q561.4688,296.1094 562.0156,296.4688 Z "/><text fill="#000000" font-family="sans-serif" font-size="12" font-style="italic" lengthAdjust="spacingAndGlyphs" textLength="80" x="583.75" y="297.957">«@Controller»</text><text fill="#000000" font-family="sans-serif" font-size="12" lengthAdjust="spacingAndGlyphs" textLength="88" x="579.75" y="313.0508">HomeController</text><line style="stroke: #A80036; stroke-width: 1.5;" x1="420" x2="795" y1="320.6875" y2="320.6875"/><rect fill="none" height="6" style="stroke: #C82930; stroke-width: 1.0;" width="6" x="427" y="328.6875"/><text fill="#000000" font-family="sans-serif" font-size="11" lengthAdjust="spacingAndGlyphs" textLength="128" x="439" y="336.1064">userService : UserService</text><rect fill="none" height="6" style="stroke: #C82930; stroke-width: 1.0;" width="6" x="427" y="342.5234"/><text fill="#000000" font-family="sans-serif" font-size="11" lengthAdjust="spacingAndGlyphs" textLength="136" x="439" y="349.9424">nameService : NameService</text><line style="stroke: #A80036; stroke-width: 1.5;" x1="420" x2="795" y1="356.3594" y2="356.3594"/><ellipse cx="430" cy="367.3594" fill="#84BE84" rx="3" ry="3" style="stroke: #038048; stroke-width: 1.0;"/><text fill="#000000" font-family="sans-serif" font-size="11" lengthAdjust="spacingAndGlyphs" textLength="351" x="439" y="371.7783">HomeController(userService : UserService, nameService : NameService)</text><ellipse cx="430" cy="381.1953" fill="#84BE84" rx="3" ry="3" style="stroke: #038048; stroke-width: 1.0;"/><text fill="#000000" font-family="sans-serif" font-size="11" lengthAdjust="spacingAndGlyphs" textLength="137" x="439" y="385.6143">Home(model : Model) : String</text><!--MD5=[9fa02863d03b995087c55f9654d1de3c]
class NameRestController--><rect codeLine="28" fill="#FEFECE" filter="url(#fxjuqh326pc24)" height="153.0391" id="NameRestController" style="stroke: #A80036; stroke-width: 1.5;" width="522" x="831.5" y="260"/><ellipse cx="1031.25" cy="280.0938" fill="#ADD1B2" rx="11" ry="11" style="stroke: #A80036; stroke-width: 1.0;"/><path d="M1034.0156,275.9688 Q1034.1719,275.75 1034.3594,275.6406 Q1034.5469,275.5313 1034.7656,275.5313 Q1035.1406,275.5313 1035.375,275.7969 Q1035.6094,276.0469 1035.6094,276.6563 L1035.6094,278.1094 Q1035.6094,278.7188 1035.375,278.9844 Q1035.1406,279.25 1034.7656,279.25 Q1034.4219,279.25 1034.2188,279.0469 Q1034.0156,278.8594 1033.9063,278.3438 Q1033.8594,277.9844 1033.6719,277.7969 Q1033.3438,277.4219 1032.7344,277.2031 Q1032.125,276.9844 1031.5,276.9844 Q1030.7344,276.9844 1030.0938,277.3125 Q1029.4688,277.6406 1028.9688,278.3906 Q1028.4844,279.1406 1028.4844,280.1719 L1028.4844,281.2656 Q1028.4844,282.5 1029.375,283.3281 Q1030.2656,284.1406 1031.8594,284.1406 Q1032.7969,284.1406 1033.4531,283.8906 Q1033.8438,283.7344 1034.2656,283.2969 Q1034.5313,283.0313 1034.6719,282.9531 Q1034.8281,282.875 1035.0313,282.875 Q1035.3594,282.875 1035.6094,283.1406 Q1035.875,283.3906 1035.875,283.7344 Q1035.875,284.0781 1035.5313,284.4844 Q1035.0313,285.0625 1034.2344,285.3906 Q1033.1563,285.8438 1031.8594,285.8438 Q1030.3438,285.8438 1029.1406,285.2188 Q1028.1563,284.7188 1027.4688,283.6563 Q1026.7813,282.5781 1026.7813,281.2969 L1026.7813,280.1406 Q1026.7813,278.8125 1027.3906,277.6719 Q1028.0156,276.5156 1029.1094,275.9063 Q1030.2031,275.2813 1031.4375,275.2813 Q1032.1719,275.2813 1032.8125,275.4531 Q1033.4688,275.6094 1034.0156,275.9688 Z "/><text fill="#000000" font-family="sans-serif" font-size="12" font-style="italic" lengthAdjust="spacingAndGlyphs" textLength="105" x="1056.25" y="277.457">«@RestController»</text><text fill="#000000" font-family="sans-serif" font-size="12" lengthAdjust="spacingAndGlyphs" textLength="114" x="1051.75" y="292.5508">NameRestController</text><line style="stroke: #A80036; stroke-width: 1.5;" x1="832.5" x2="1352.5" y1="300.1875" y2="300.1875"/><rect fill="none" height="6" style="stroke: #C82930; stroke-width: 1.0;" width="6" x="839.5" y="308.1875"/><text fill="#000000" font-family="sans-serif" font-size="11" lengthAdjust="spacingAndGlyphs" textLength="128" x="851.5" y="315.6064">userService : UserService</text><rect fill="none" height="6" style="stroke: #C82930; stroke-width: 1.0;" width="6" x="839.5" y="322.0234"/><text fill="#000000" font-family="sans-serif" font-size="11" lengthAdjust="spacingAndGlyphs" textLength="136" x="851.5" y="329.4424">nameService : NameService</text><line style="stroke: #A80036; stroke-width: 1.5;" x1="832.5" x2="1352.5" y1="335.8594" y2="335.8594"/><ellipse cx="842.5" cy="346.8594" fill="#84BE84" rx="3" ry="3" style="stroke: #038048; stroke-width: 1.0;"/><text fill="#000000" font-family="sans-serif" font-size="11" lengthAdjust="spacingAndGlyphs" textLength="373" x="851.5" y="351.2783">NameRestController(userService : UserService, nameService : NameService)</text><ellipse cx="842.5" cy="360.6953" fill="#84BE84" rx="3" ry="3" style="stroke: #038048; stroke-width: 1.0;"/><text fill="#000000" font-family="sans-serif" font-size="11" lengthAdjust="spacingAndGlyphs" textLength="483" x="851.5" y="365.1143">ApproveName(id : String, male : String, female : String, session : HttpSession) : Optional&lt;NameCard&gt;</text><ellipse cx="842.5" cy="374.5313" fill="#84BE84" rx="3" ry="3" style="stroke: #038048; stroke-width: 1.0;"/><text fill="#000000" font-family="sans-serif" font-size="11" lengthAdjust="spacingAndGlyphs" textLength="496" x="851.5" y="378.9502">DisapproveName(id : String, male : String, female : String, session : HttpSession) : Optional&lt;NameCard&gt;</text><ellipse cx="842.5" cy="388.3672" fill="#84BE84" rx="3" ry="3" style="stroke: #038048; stroke-width: 1.0;"/><text fill="#000000" font-family="sans-serif" font-size="11" lengthAdjust="spacingAndGlyphs" textLength="479" x="851.5" y="392.7861">getNewName(id : String, male : String, female : String, session : HttpSession) : Optional&lt;NameCard&gt;</text><ellipse cx="842.5" cy="402.2031" fill="#84BE84" rx="3" ry="3" style="stroke: #038048; stroke-width: 1.0;"/><text fill="#000000" font-family="sans-serif" font-size="11" lengthAdjust="spacingAndGlyphs" textLength="462" x="851.5" y="406.6221">getNewNameCard(user : User, nameService : NameService, gender : int) : Optional&lt;NameCard&gt;</text><!--MD5=[33c791a20d5bf5fb45a9638694790210]
class NameRepository--><rect codeLine="37" fill="#FEFECE" filter="url(#fxjuqh326pc24)" height="111.5313" id="NameRepository" style="stroke: #A80036; stroke-width: 1.5;" width="254" x="1415.5" y="47.5"/><ellipse cx="1491.75" cy="67.5938" fill="#B4A7E5" rx="11" ry="11" style="stroke: #A80036; stroke-width: 1.0;"/><path d="M1492.7031,64.2344 L1492.7031,70.8906 L1494.4219,70.8906 Q1495.0313,70.8906 1495.2969,71.125 Q1495.5625,71.3594 1495.5625,71.75 Q1495.5625,72.125 1495.2969,72.3594 Q1495.0313,72.5938 1494.4219,72.5938 L1489.2813,72.5938 Q1488.6719,72.5938 1488.4063,72.3594 Q1488.1406,72.125 1488.1406,71.7344 Q1488.1406,71.3594 1488.4063,71.125 Q1488.6719,70.8906 1489.2813,70.8906 L1491,70.8906 L1491,64.2344 L1489.2813,64.2344 Q1488.6719,64.2344 1488.4063,64 Q1488.1406,63.7656 1488.1406,63.375 Q1488.1406,63 1488.4063,62.7656 Q1488.6719,62.5313 1489.2813,62.5313 L1494.4219,62.5313 Q1495.0313,62.5313 1495.2969,62.7656 Q1495.5625,63 1495.5625,63.375 Q1495.5625,63.7656 1495.2969,64 Q1495.0313,64.2344 1494.4219,64.2344 L1492.7031,64.2344 Z "/><text fill="#000000" font-family="sans-serif" font-size="12" font-style="italic" lengthAdjust="spacingAndGlyphs" textLength="61" x="1528.25" y="64.957">«interface»</text><text fill="#000000" font-family="sans-serif" font-size="12" font-style="italic" lengthAdjust="spacingAndGlyphs" textLength="93" x="1512.25" y="80.0508">NameRepository</text><line style="stroke: #A80036; stroke-width: 1.5;" x1="1416.5" x2="1668.5" y1="87.6875" y2="87.6875"/><line style="stroke: #A80036; stroke-width: 1.5;" x1="1416.5" x2="1668.5" y1="95.6875" y2="95.6875"/><text fill="#000000" font-family="sans-serif" font-size="11" lengthAdjust="spacingAndGlyphs" textLength="138" x="1421.5" y="111.1064">delete(namecard NameCard)</text><text fill="#000000" font-family="sans-serif" font-size="11" lengthAdjust="spacingAndGlyphs" textLength="126" x="1421.5" y="124.9424">findAll() : List&lt;NameCard&gt;</text><text fill="#000000" font-family="sans-serif" font-size="11" lengthAdjust="spacingAndGlyphs" textLength="210" x="1421.5" y="138.7783">findById(id : Integer ) : Optional&lt;NameCard&gt;</text><text fill="#000000" font-family="sans-serif" font-size="11" lengthAdjust="spacingAndGlyphs" textLength="242" x="1421.5" y="152.6143">findAllByGender(bool : boolean) : List&lt;NameCard&gt;</text><!--MD5=[32f3bed017e9ae614dff47f85e0db921]
class NameService--><rect codeLine="43" fill="#FEFECE" filter="url(#fxjuqh326pc24)" height="125.3672" id="NameService" style="stroke: #A80036; stroke-width: 1.5;" width="254" x="722.5" y="41"/><ellipse cx="807.75" cy="61.0938" fill="#B4A7E5" rx="11" ry="11" style="stroke: #A80036; stroke-width: 1.0;"/><path d="M808.7031,57.7344 L808.7031,64.3906 L810.4219,64.3906 Q811.0313,64.3906 811.2969,64.625 Q811.5625,64.8594 811.5625,65.25 Q811.5625,65.625 811.2969,65.8594 Q811.0313,66.0938 810.4219,66.0938 L805.2813,66.0938 Q804.6719,66.0938 804.4063,65.8594 Q804.1406,65.625 804.1406,65.2344 Q804.1406,64.8594 804.4063,64.625 Q804.6719,64.3906 805.2813,64.3906 L807,64.3906 L807,57.7344 L805.2813,57.7344 Q804.6719,57.7344 804.4063,57.5 Q804.1406,57.2656 804.1406,56.875 Q804.1406,56.5 804.4063,56.2656 Q804.6719,56.0313 805.2813,56.0313 L810.4219,56.0313 Q811.0313,56.0313 811.2969,56.2656 Q811.5625,56.5 811.5625,56.875 Q811.5625,57.2656 811.2969,57.5 Q811.0313,57.7344 810.4219,57.7344 L808.7031,57.7344 Z "/><text fill="#000000" font-family="sans-serif" font-size="12" font-style="italic" lengthAdjust="spacingAndGlyphs" textLength="62" x="834.75" y="58.457">«Interface»</text><text fill="#000000" font-family="sans-serif" font-size="12" font-style="italic" lengthAdjust="spacingAndGlyphs" textLength="75" x="828.25" y="73.5508">NameService</text><line style="stroke: #A80036; stroke-width: 1.5;" x1="723.5" x2="975.5" y1="81.1875" y2="81.1875"/><line style="stroke: #A80036; stroke-width: 1.5;" x1="723.5" x2="975.5" y1="89.1875" y2="89.1875"/><text fill="#000000" font-family="sans-serif" font-size="11" lengthAdjust="spacingAndGlyphs" textLength="199" x="728.5" y="104.6064">save(nameCard : NameCard) : NameCard</text><text fill="#000000" font-family="sans-serif" font-size="11" lengthAdjust="spacingAndGlyphs" textLength="204" x="728.5" y="118.4424">delete(nameCard : NameCard) : NameCard</text><text fill="#000000" font-family="sans-serif" font-size="11" lengthAdjust="spacingAndGlyphs" textLength="126" x="728.5" y="132.2783">findAll() : List&lt;NameCard&gt;</text><text fill="#000000" font-family="sans-serif" font-size="11" lengthAdjust="spacingAndGlyphs" textLength="207" x="728.5" y="146.1143">findById(id : Integer) : Optional&lt;NameCard&gt;</text><text fill="#000000" font-family="sans-serif" font-size="11" lengthAdjust="spacingAndGlyphs" textLength="242" x="728.5" y="159.9502">findAllByGender(bool : boolean) : List&lt;NameCard&gt;</text><!--MD5=[e5a7ddd2c48529d0aa874914a9a99d88]
class NameServiceImplementation--><rect codeLine="50" fill="#FEFECE" filter="url(#fxjuqh326pc24)" height="153.0391" id="NameServiceImplementation" style="stroke: #A80036; stroke-width: 1.5;" width="307" x="1389" y="260"/><ellipse cx="1458.25" cy="280.0938" fill="#ADD1B2" rx="11" ry="11" style="stroke: #A80036; stroke-width: 1.0;"/><path d="M1461.0156,275.9688 Q1461.1719,275.75 1461.3594,275.6406 Q1461.5469,275.5313 1461.7656,275.5313 Q1462.1406,275.5313 1462.375,275.7969 Q1462.6094,276.0469 1462.6094,276.6563 L1462.6094,278.1094 Q1462.6094,278.7188 1462.375,278.9844 Q1462.1406,279.25 1461.7656,279.25 Q1461.4219,279.25 1461.2188,279.0469 Q1461.0156,278.8594 1460.9063,278.3438 Q1460.8594,277.9844 1460.6719,277.7969 Q1460.3438,277.4219 1459.7344,277.2031 Q1459.125,276.9844 1458.5,276.9844 Q1457.7344,276.9844 1457.0938,277.3125 Q1456.4688,277.6406 1455.9688,278.3906 Q1455.4844,279.1406 1455.4844,280.1719 L1455.4844,281.2656 Q1455.4844,282.5 1456.375,283.3281 Q1457.2656,284.1406 1458.8594,284.1406 Q1459.7969,284.1406 1460.4531,283.8906 Q1460.8438,283.7344 1461.2656,283.2969 Q1461.5313,283.0313 1461.6719,282.9531 Q1461.8281,282.875 1462.0313,282.875 Q1462.3594,282.875 1462.6094,283.1406 Q1462.875,283.3906 1462.875,283.7344 Q1462.875,284.0781 1462.5313,284.4844 Q1462.0313,285.0625 1461.2344,285.3906 Q1460.1563,285.8438 1458.8594,285.8438 Q1457.3438,285.8438 1456.1406,285.2188 Q1455.1563,284.7188 1454.4688,283.6563 Q1453.7813,282.5781 1453.7813,281.2969 L1453.7813,280.1406 Q1453.7813,278.8125 1454.3906,277.6719 Q1455.0156,276.5156 1456.1094,275.9063 Q1457.2031,275.2813 1458.4375,275.2813 Q1459.1719,275.2813 1459.8125,275.4531 Q1460.4688,275.6094 1461.0156,275.9688 Z "/><text fill="#000000" font-family="sans-serif" font-size="12" font-style="italic" lengthAdjust="spacingAndGlyphs" textLength="67" x="1525.25" y="277.457">«@Service»</text><text fill="#000000" font-family="sans-serif" font-size="12" lengthAdjust="spacingAndGlyphs" textLength="160" x="1478.75" y="292.5508">NameServiceImplementation</text><line style="stroke: #A80036; stroke-width: 1.5;" x1="1390" x2="1695" y1="300.1875" y2="300.1875"/><text fill="#000000" font-family="sans-serif" font-size="11" lengthAdjust="spacingAndGlyphs" textLength="137" x="1395" y="315.6064">repository : NameRepository</text><line style="stroke: #A80036; stroke-width: 1.0;" x1="1390" x2="1695" y1="322.0234" y2="322.0234"/><ellipse cx="1400" cy="333.0234" fill="#84BE84" rx="3" ry="3" style="stroke: #038048; stroke-width: 1.0;"/><text fill="#000000" font-family="sans-serif" font-size="11" lengthAdjust="spacingAndGlyphs" textLength="281" x="1409" y="337.4424">NameServiceImplementation(nameRepo : NameRepository)</text><ellipse cx="1400" cy="346.8594" fill="#84BE84" rx="3" ry="3" style="stroke: #038048; stroke-width: 1.0;"/><text fill="#000000" font-family="sans-serif" font-size="11" lengthAdjust="spacingAndGlyphs" textLength="199" x="1409" y="351.2783">save(nameCard : NameCard) : NameCard</text><ellipse cx="1400" cy="360.6953" fill="#84BE84" rx="3" ry="3" style="stroke: #038048; stroke-width: 1.0;"/><text fill="#000000" font-family="sans-serif" font-size="11" lengthAdjust="spacingAndGlyphs" textLength="145" x="1409" y="365.1143">delete(nameCard : NameCard)</text><ellipse cx="1400" cy="374.5313" fill="#84BE84" rx="3" ry="3" style="stroke: #038048; stroke-width: 1.0;"/><text fill="#000000" font-family="sans-serif" font-size="11" lengthAdjust="spacingAndGlyphs" textLength="126" x="1409" y="378.9502">findAll() : List&lt;NameCard&gt;</text><ellipse cx="1400" cy="388.3672" fill="#84BE84" rx="3" ry="3" style="stroke: #038048; stroke-width: 1.0;"/><text fill="#000000" font-family="sans-serif" font-size="11" lengthAdjust="spacingAndGlyphs" textLength="207" x="1409" y="392.7861">findById(id : Integer) : Optional&lt;NameCard&gt;</text><ellipse cx="1400" cy="402.2031" fill="#84BE84" rx="3" ry="3" style="stroke: #038048; stroke-width: 1.0;"/><text fill="#000000" font-family="sans-serif" font-size="11" lengthAdjust="spacingAndGlyphs" textLength="242" x="1409" y="406.6221">findAllByGender(bool : boolean) : List&lt;NameCard&gt;</text><!--MD5=[8c65f70f662884401f863069a70d55e4]
reverse link NameService to NameServiceImplementation--><path codeLine="61" d="M996.3,142.89 C1101.81,171.77 1246.84,214.12 1371.5,260 C1377.13,262.07 1382.85,264.24 1388.6,266.48 " fill="none" id="NameService-backto-NameServiceImplementation" style="stroke: #A80036; stroke-width: 1.0;"/><polygon fill="none" points="994.2,149.57,976.74,137.57,997.88,136.06,994.2,149.57" style="stroke: #A80036; stroke-width: 1.0;"/><!--MD5=[9de8c9abc7afbab13fd1219f61c088af]
reverse link NameRepository to NameServiceImplementation--><path codeLine="63" d="M1542.5,164.89 C1542.5,193.95 1542.5,229.1 1542.5,259.92 " fill="none" id="NameRepository-backto-NameServiceImplementation" style="stroke: #A80036; stroke-width: 1.0;"/><polygon fill="#A80036" points="1542.5,159.54,1538.5,168.54,1542.5,164.54,1546.5,168.54,1542.5,159.54" style="stroke: #A80036; stroke-width: 1.0;"/><!--MD5=[a52f5b8e825f8b85482c0ca430739494]
reverse link NameService to HomeController--><path codeLine="65" d="M781,169.88 C744.47,204.76 700.01,247.2 665.24,280.38 " fill="none" id="NameService-backto-HomeController" style="stroke: #A80036; stroke-width: 1.0;"/><polygon fill="#A80036" points="784.97,166.1,775.7013,169.4304,781.3568,169.5561,781.2311,175.2116,784.97,166.1" style="stroke: #A80036; stroke-width: 1.0;"/><!--MD5=[33373b27ba9a371a4e26bde3e3c4ab4b]
reverse link NameService to NameController--><path codeLine="67" d="M763.62,168.81 C744.87,180.6 724.6,191.76 704.5,200 C577.47,252.06 533.68,222.93 401.5,260 C380.32,265.94 358.21,273.04 336.67,280.48 " fill="none" id="NameService-backto-NameController" style="stroke: #A80036; stroke-width: 1.0;"/><polygon fill="#A80036" points="767.85,166.12,758.1083,167.5687,763.6293,168.8007,762.3974,174.3218,767.85,166.12" style="stroke: #A80036; stroke-width: 1.0;"/><!--MD5=[0968f3acb64cff4c724062719690d34e]
reverse link NameService to NameRestController--><path codeLine="69" d="M918.23,169.84 C947.64,197.79 982.16,230.61 1012.69,259.63 " fill="none" id="NameService-backto-NameRestController" style="stroke: #A80036; stroke-width: 1.0;"/><polygon fill="#A80036" points="914.3,166.1,918.0577,175.2038,917.9203,169.5486,923.5755,169.4113,914.3,166.1" style="stroke: #A80036; stroke-width: 1.0;"/><!--MD5=[7c8b10e9b726c0f078002afc67cd0e46]
@startuml Name
Class NameCard <<@Entity>> {
    -id : Integer
    -name : String
    -description : String
    -gender : boolean
    - -
    +NameCard()
    +NameCard(id : Integer, name : String, description : String)
    .. Modified getter ..
    +getGender() : int
    - -
    +[Getters and Setters]
}

class NameController <<@Controller>> {
    -userService : UserService
    -nameService : NameService
    +NameController(userService : UserService, nameService : NameService)
    +SwipeNames(model: Model, session HttpSession) : String
}

class HomeController <<@Controller>> {
    -userService : UserService
    -nameService : NameService
    +HomeController(userService : UserService, nameService : NameService)
    +Home(model : Model) : String
}
class NameRestController <<@RestController>> {
    -userService : UserService
    -nameService : NameService
    +NameRestController(userService : UserService, nameService : NameService)
    +ApproveName(id : String, male : String, female : String, session : HttpSession) : Optional<NameCard>
    +DisapproveName(id : String, male : String, female : String, session : HttpSession) : Optional<NameCard>
    +getNewName(id : String, male : String, female : String, session : HttpSession) : Optional<NameCard>
    +getNewNameCard(user : User, nameService : NameService, gender : int) : Optional<NameCard>
}
Interface NameRepository<<interface>> {
    delete(namecard NameCard)
    findAll() : List<NameCard>
    findById(id : Integer ) : Optional<NameCard>
    findAllByGender(bool : boolean) : List<NameCard>
}
Interface NameService <<Interface>> {
    save(nameCard : NameCard) : NameCard
    delete(nameCard : NameCard) : NameCard
    findAll() : List<NameCard>
    findById(id : Integer) : Optional<NameCard>
    findAllByGender(bool : boolean) : List<NameCard>
}
class NameServiceImplementation <<@Service>> {
    repository : NameRepository
    - -
    +NameServiceImplementation(nameRepo : NameRepository)
    +save(nameCard : NameCard) : NameCard
    +delete(nameCard : NameCard)
    +findAll() : List<NameCard>
    +findById(id : Integer) : Optional<NameCard>
    +findAllByGender(bool : boolean) : List<NameCard>
}

NameService <|- - NameServiceImplementation

NameRepository <- - NameServiceImplementation

NameService <- - HomeController

NameService <- - NameController

NameService <- - NameRestController
@enduml

PlantUML version 1.2020.18(Wed Sep 30 19:40:44 GMT 2020)
(GPL source distribution)
Java Runtime: OpenJDK Runtime Environment
JVM: OpenJDK 64-Bit Server VM
Default Encoding: Cp1252
Language: en
Country: US
--></g></svg>