<?xml version="1.0" encoding="UTF-8" standalone="no"?><svg xmlns="http://www.w3.org/2000/svg" xmlns:xlink="http://www.w3.org/1999/xlink" contentScriptType="application/ecmascript" contentStyleType="text/css" height="552px" preserveAspectRatio="none" style="width:1664px;height:552px;" version="1.1" viewBox="0 0 1664 552" width="1664px" zoomAndPan="magnify"><defs><filter height="300%" id="f1d9ksxqhe1xx6" width="300%" x="-1" y="-1"><feGaussianBlur result="blurOut" stdDeviation="2.0"/><feColorMatrix in="blurOut" result="blurOut2" type="matrix" values="0 0 0 0 0 0 0 0 0 0 0 0 0 0 0 0 0 0 .4 0"/><feOffset dx="4.0" dy="4.0" in="blurOut2" result="blurOut3"/><feBlend in="SourceGraphic" in2="blurOut3" mode="normal"/></filter></defs><g><!--MD5=[3fd616f346a44cd59a91eb10b19e157c]
class User--><rect codeLine="1" fill="#FEFECE" filter="url(#f1d9ksxqhe1xx6)" height="291.3984" id="User" style="stroke: #A80036; stroke-width: 1.5;" width="460" x="7" y="7"/><ellipse cx="206.75" cy="27.0938" fill="#ADD1B2" rx="11" ry="11" style="stroke: #A80036; stroke-width: 1.0;"/><path d="M209.5156,22.9688 Q209.6719,22.75 209.8594,22.6406 Q210.0469,22.5313 210.2656,22.5313 Q210.6406,22.5313 210.875,22.7969 Q211.1094,23.0469 211.1094,23.6563 L211.1094,25.1094 Q211.1094,25.7188 210.875,25.9844 Q210.6406,26.25 210.2656,26.25 Q209.9219,26.25 209.7188,26.0469 Q209.5156,25.8594 209.4063,25.3438 Q209.3594,24.9844 209.1719,24.7969 Q208.8438,24.4219 208.2344,24.2031 Q207.625,23.9844 207,23.9844 Q206.2344,23.9844 205.5938,24.3125 Q204.9688,24.6406 204.4688,25.3906 Q203.9844,26.1406 203.9844,27.1719 L203.9844,28.2656 Q203.9844,29.5 204.875,30.3281 Q205.7656,31.1406 207.3594,31.1406 Q208.2969,31.1406 208.9531,30.8906 Q209.3438,30.7344 209.7656,30.2969 Q210.0313,30.0313 210.1719,29.9531 Q210.3281,29.875 210.5313,29.875 Q210.8594,29.875 211.1094,30.1406 Q211.375,30.3906 211.375,30.7344 Q211.375,31.0781 211.0313,31.4844 Q210.5313,32.0625 209.7344,32.3906 Q208.6563,32.8438 207.3594,32.8438 Q205.8438,32.8438 204.6406,32.2188 Q203.6563,31.7188 202.9688,30.6563 Q202.2813,29.5781 202.2813,28.2969 L202.2813,27.1406 Q202.2813,25.8125 202.8906,24.6719 Q203.5156,23.5156 204.6094,22.9063 Q205.7031,22.2813 206.9375,22.2813 Q207.6719,22.2813 208.3125,22.4531 Q208.9688,22.6094 209.5156,22.9688 Z "/><text fill="#000000" font-family="sans-serif" font-size="12" font-style="italic" lengthAdjust="spacingAndGlyphs" textLength="56" x="225.25" y="24.457">«@Entity»</text><text fill="#000000" font-family="sans-serif" font-size="12" lengthAdjust="spacingAndGlyphs" textLength="27" x="239.75" y="39.5508">User</text><line style="stroke: #A80036; stroke-width: 1.5;" x1="8" x2="466" y1="47.1875" y2="47.1875"/><rect fill="none" height="6" style="stroke: #C82930; stroke-width: 1.0;" width="6" x="15" y="55.1875"/><text fill="#000000" font-family="sans-serif" font-size="11" lengthAdjust="spacingAndGlyphs" textLength="41" x="27" y="62.6064">id : Long</text><rect fill="none" height="6" style="stroke: #C82930; stroke-width: 1.0;" width="6" x="15" y="69.0234"/><text fill="#000000" font-family="sans-serif" font-size="11" lengthAdjust="spacingAndGlyphs" textLength="63" x="27" y="76.4424">name : String</text><rect fill="none" height="6" style="stroke: #C82930; stroke-width: 1.0;" width="6" x="15" y="82.8594"/><text fill="#000000" font-family="sans-serif" font-size="11" lengthAdjust="spacingAndGlyphs" textLength="61" x="27" y="90.2783">email : String</text><rect fill="none" height="6" style="stroke: #C82930; stroke-width: 1.0;" width="6" x="15" y="96.6953"/><text fill="#000000" font-family="sans-serif" font-size="11" lengthAdjust="spacingAndGlyphs" textLength="87" x="27" y="104.1143">password : String</text><rect fill="none" height="6" style="stroke: #C82930; stroke-width: 1.0;" width="6" x="15" y="110.5313"/><text fill="#000000" font-family="sans-serif" font-size="11" lengthAdjust="spacingAndGlyphs" textLength="174" x="27" y="117.9502">availableNames : ArrayList&lt;Integer&gt;</text><rect fill="none" height="6" style="stroke: #C82930; stroke-width: 1.0;" width="6" x="15" y="124.3672"/><text fill="#000000" font-family="sans-serif" font-size="11" lengthAdjust="spacingAndGlyphs" textLength="178" x="27" y="131.7861">approvedNames : ArrayList&lt;Integer&gt;</text><rect fill="none" height="6" style="stroke: #C82930; stroke-width: 1.0;" width="6" x="15" y="138.2031"/><text fill="#000000" font-family="sans-serif" font-size="11" lengthAdjust="spacingAndGlyphs" textLength="158" x="27" y="145.6221">linkedPartners : ArrayList&lt;Long&gt;</text><line style="stroke: #A80036; stroke-width: 1.0;" x1="8" x2="466" y1="152.0391" y2="152.0391"/><ellipse cx="18" cy="163.0391" fill="#84BE84" rx="3" ry="3" style="stroke: #038048; stroke-width: 1.0;"/><text fill="#000000" font-family="sans-serif" font-size="11" lengthAdjust="spacingAndGlyphs" textLength="31" x="27" y="167.458">User()</text><ellipse cx="18" cy="176.875" fill="#84BE84" rx="3" ry="3" style="stroke: #038048; stroke-width: 1.0;"/><text fill="#000000" font-family="sans-serif" font-size="11" lengthAdjust="spacingAndGlyphs" textLength="434" x="27" y="181.2939">User(name : String, email : String, password : String, availableNames : ArrayList&lt;Integer&gt;)</text><ellipse cx="18" cy="190.7109" fill="#84BE84" rx="3" ry="3" style="stroke: #038048; stroke-width: 1.0;"/><text fill="#000000" font-family="sans-serif" font-size="11" lengthAdjust="spacingAndGlyphs" textLength="224" x="27" y="195.1299">approveName(id : Integer) : ArrayList&lt;Integer&gt;</text><ellipse cx="18" cy="204.5469" fill="#84BE84" rx="3" ry="3" style="stroke: #038048; stroke-width: 1.0;"/><text fill="#000000" font-family="sans-serif" font-size="11" lengthAdjust="spacingAndGlyphs" textLength="238" x="27" y="208.9658">disapproveName(id : Integer) : ArrayList&lt;Integer&gt;</text><ellipse cx="18" cy="218.3828" fill="#84BE84" rx="3" ry="3" style="stroke: #038048; stroke-width: 1.0;"/><text fill="#000000" font-family="sans-serif" font-size="11" lengthAdjust="spacingAndGlyphs" textLength="133" x="27" y="222.8018">addLinkedPartner(id : Long)</text><ellipse cx="18" cy="232.2188" fill="#84BE84" rx="3" ry="3" style="stroke: #038048; stroke-width: 1.0;"/><text fill="#000000" font-family="sans-serif" font-size="11" lengthAdjust="spacingAndGlyphs" textLength="198" x="27" y="236.6377">removeLinkedPartner(id : Long) : boolean</text><ellipse cx="18" cy="246.0547" fill="#84BE84" rx="3" ry="3" style="stroke: #038048; stroke-width: 1.0;"/><text fill="#000000" font-family="sans-serif" font-size="11" lengthAdjust="spacingAndGlyphs" textLength="141" x="27" y="250.4736">getAvailableNamesSize() : int</text><ellipse cx="18" cy="259.8906" fill="#84BE84" rx="3" ry="3" style="stroke: #038048; stroke-width: 1.0;"/><text fill="#000000" font-family="sans-serif" font-size="11" lengthAdjust="spacingAndGlyphs" textLength="139" x="27" y="264.3096">getRandomNameId() : Integer</text><ellipse cx="18" cy="273.7266" fill="#84BE84" rx="3" ry="3" style="stroke: #038048; stroke-width: 1.0;"/><text fill="#000000" font-family="sans-serif" font-size="11" lengthAdjust="spacingAndGlyphs" textLength="289" x="27" y="278.1455">getRandomNameId(genderList : ArrayList&lt;Integer&gt;) : Integer</text><ellipse cx="18" cy="287.5625" fill="none" rx="3" ry="3" style="stroke: #038048; stroke-width: 1.0;"/><text fill="#000000" font-family="sans-serif" font-size="11" lengthAdjust="spacingAndGlyphs" textLength="90" x="27" y="291.9814">[Getters &amp; Setters]</text><!--MD5=[093c210125347143eef5bb9199eae634]
class UserRepository--><rect codeLine="69" fill="#FEFECE" filter="url(#f1d9ksxqhe1xx6)" height="222.2188" id="UserRepository" style="stroke: #A80036; stroke-width: 1.5;" width="331" x="502.5" y="41.5"/><ellipse cx="621.25" cy="61.5938" fill="#B4A7E5" rx="11" ry="11" style="stroke: #A80036; stroke-width: 1.0;"/><path d="M622.2031,58.2344 L622.2031,64.8906 L623.9219,64.8906 Q624.5313,64.8906 624.7969,65.125 Q625.0625,65.3594 625.0625,65.75 Q625.0625,66.125 624.7969,66.3594 Q624.5313,66.5938 623.9219,66.5938 L618.7813,66.5938 Q618.1719,66.5938 617.9063,66.3594 Q617.6406,66.125 617.6406,65.7344 Q617.6406,65.3594 617.9063,65.125 Q618.1719,64.8906 618.7813,64.8906 L620.5,64.8906 L620.5,58.2344 L618.7813,58.2344 Q618.1719,58.2344 617.9063,58 Q617.6406,57.7656 617.6406,57.375 Q617.6406,57 617.9063,56.7656 Q618.1719,56.5313 618.7813,56.5313 L623.9219,56.5313 Q624.5313,56.5313 624.7969,56.7656 Q625.0625,57 625.0625,57.375 Q625.0625,57.7656 624.7969,58 Q624.5313,58.2344 623.9219,58.2344 L622.2031,58.2344 Z "/><text fill="#000000" font-family="sans-serif" font-size="12" font-style="italic" lengthAdjust="spacingAndGlyphs" textLength="61" x="653.75" y="58.957">«interface»</text><text fill="#000000" font-family="sans-serif" font-size="12" font-style="italic" lengthAdjust="spacingAndGlyphs" textLength="85" x="641.75" y="74.0508">UserRepository</text><line style="stroke: #A80036; stroke-width: 1.5;" x1="503.5" x2="832.5" y1="81.6875" y2="81.6875"/><line style="stroke: #A80036; stroke-width: 1.5;" x1="503.5" x2="832.5" y1="89.6875" y2="89.6875"/><text fill="#000000" font-family="sans-serif" font-size="11" lengthAdjust="spacingAndGlyphs" textLength="85" x="508.5" y="105.1064">delete(user User)</text><text fill="#000000" font-family="sans-serif" font-size="11" lengthAdjust="spacingAndGlyphs" textLength="99" x="508.5" y="118.9424">findAll() : List&lt;User&gt;</text><text fill="#000000" font-family="sans-serif" font-size="11" lengthAdjust="spacingAndGlyphs" textLength="190" x="508.5" y="132.7783">findByName(name : String) : List&lt;User&gt;</text><text fill="#000000" font-family="sans-serif" font-size="11" lengthAdjust="spacingAndGlyphs" textLength="319" x="508.5" y="146.6143">findByEmailAndPassword(email : String, password : String) : User</text><text fill="#000000" font-family="sans-serif" font-size="11" lengthAdjust="spacingAndGlyphs" textLength="156" x="508.5" y="160.4502">findByEmail(email : String) : User</text><text fill="#000000" font-family="sans-serif" font-size="11" lengthAdjust="spacingAndGlyphs" textLength="174" x="508.5" y="174.2861">findById(id : Long ) : Optional&lt;User&gt;</text><text fill="#000000" font-family="sans-serif" font-size="11" lengthAdjust="spacingAndGlyphs" textLength="85" x="508.5" y="188.1221">delete(user User)</text><text fill="#000000" font-family="sans-serif" font-size="11" lengthAdjust="spacingAndGlyphs" textLength="99" x="508.5" y="201.958">findAll() : List&lt;User&gt;</text><text fill="#000000" font-family="sans-serif" font-size="11" lengthAdjust="spacingAndGlyphs" textLength="190" x="508.5" y="215.7939">findByName(name : String) : List&lt;User&gt;</text><text fill="#000000" font-family="sans-serif" font-size="11" lengthAdjust="spacingAndGlyphs" textLength="319" x="508.5" y="229.6299">findByEmailAndPassword(email : String, password : String) : User</text><text fill="#000000" font-family="sans-serif" font-size="11" lengthAdjust="spacingAndGlyphs" textLength="156" x="508.5" y="243.4658">findByEmail(email : String) : User</text><text fill="#000000" font-family="sans-serif" font-size="11" lengthAdjust="spacingAndGlyphs" textLength="174" x="508.5" y="257.3018">findById(id : Long ) : Optional&lt;User&gt;</text><!--MD5=[29f97d496cbdc4ec81664c6d94dc9bf6]
class UserController--><rect codeLine="29" fill="#FEFECE" filter="url(#f1d9ksxqhe1xx6)" height="194.5469" id="UserController" style="stroke: #A80036; stroke-width: 1.5;" width="376" x="1274" y="55"/><ellipse cx="1417.25" cy="75.0938" fill="#ADD1B2" rx="11" ry="11" style="stroke: #A80036; stroke-width: 1.0;"/><path d="M1420.0156,70.9688 Q1420.1719,70.75 1420.3594,70.6406 Q1420.5469,70.5313 1420.7656,70.5313 Q1421.1406,70.5313 1421.375,70.7969 Q1421.6094,71.0469 1421.6094,71.6563 L1421.6094,73.1094 Q1421.6094,73.7188 1421.375,73.9844 Q1421.1406,74.25 1420.7656,74.25 Q1420.4219,74.25 1420.2188,74.0469 Q1420.0156,73.8594 1419.9063,73.3438 Q1419.8594,72.9844 1419.6719,72.7969 Q1419.3438,72.4219 1418.7344,72.2031 Q1418.125,71.9844 1417.5,71.9844 Q1416.7344,71.9844 1416.0938,72.3125 Q1415.4688,72.6406 1414.9688,73.3906 Q1414.4844,74.1406 1414.4844,75.1719 L1414.4844,76.2656 Q1414.4844,77.5 1415.375,78.3281 Q1416.2656,79.1406 1417.8594,79.1406 Q1418.7969,79.1406 1419.4531,78.8906 Q1419.8438,78.7344 1420.2656,78.2969 Q1420.5313,78.0313 1420.6719,77.9531 Q1420.8281,77.875 1421.0313,77.875 Q1421.3594,77.875 1421.6094,78.1406 Q1421.875,78.3906 1421.875,78.7344 Q1421.875,79.0781 1421.5313,79.4844 Q1421.0313,80.0625 1420.2344,80.3906 Q1419.1563,80.8438 1417.8594,80.8438 Q1416.3438,80.8438 1415.1406,80.2188 Q1414.1563,79.7188 1413.4688,78.6563 Q1412.7813,77.5781 1412.7813,76.2969 L1412.7813,75.1406 Q1412.7813,73.8125 1413.3906,72.6719 Q1414.0156,71.5156 1415.1094,70.9063 Q1416.2031,70.2813 1417.4375,70.2813 Q1418.1719,70.2813 1418.8125,70.4531 Q1419.4688,70.6094 1420.0156,70.9688 Z "/><text fill="#000000" font-family="sans-serif" font-size="12" font-style="italic" lengthAdjust="spacingAndGlyphs" textLength="80" x="1438.25" y="72.457">«@Controller»</text><text fill="#000000" font-family="sans-serif" font-size="12" lengthAdjust="spacingAndGlyphs" textLength="81" x="1437.75" y="87.5508">UserController</text><line style="stroke: #A80036; stroke-width: 1.5;" x1="1275" x2="1649" y1="95.1875" y2="95.1875"/><rect fill="none" height="6" style="stroke: #C82930; stroke-width: 1.0;" width="6" x="1282" y="103.1875"/><text fill="#000000" font-family="sans-serif" font-size="11" lengthAdjust="spacingAndGlyphs" textLength="128" x="1294" y="110.6064">userService : UserService</text><rect fill="none" height="6" style="stroke: #C82930; stroke-width: 1.0;" width="6" x="1282" y="117.0234"/><text fill="#000000" font-family="sans-serif" font-size="11" lengthAdjust="spacingAndGlyphs" textLength="136" x="1294" y="124.4424">nameService : NameService</text><line style="stroke: #A80036; stroke-width: 1.5;" x1="1275" x2="1649" y1="130.8594" y2="130.8594"/><ellipse cx="1285" cy="141.8594" fill="#84BE84" rx="3" ry="3" style="stroke: #038048; stroke-width: 1.0;"/><text fill="#000000" font-family="sans-serif" font-size="11" lengthAdjust="spacingAndGlyphs" textLength="350" x="1294" y="146.2783">UserController (userService : UserService, nameService : NameService)</text><ellipse cx="1285" cy="155.6953" fill="#84BE84" rx="3" ry="3" style="stroke: #038048; stroke-width: 1.0;"/><text fill="#000000" font-family="sans-serif" font-size="11" lengthAdjust="spacingAndGlyphs" textLength="204" x="1294" y="160.1143">Login(model : Model, session:HttpSession)</text><ellipse cx="1285" cy="169.5313" fill="#84BE84" rx="3" ry="3" style="stroke: #038048; stroke-width: 1.0;"/><text fill="#000000" font-family="sans-serif" font-size="11" lengthAdjust="spacingAndGlyphs" textLength="268" x="1294" y="173.9502">PostLogin(email : String, password:String, model:Model)</text><ellipse cx="1285" cy="183.3672" fill="#84BE84" rx="3" ry="3" style="stroke: #038048; stroke-width: 1.0;"/><text fill="#000000" font-family="sans-serif" font-size="11" lengthAdjust="spacingAndGlyphs" textLength="261" x="1294" y="187.7861">Signup(user:User, result : BindingResult, model:Model)</text><ellipse cx="1285" cy="197.2031" fill="#84BE84" rx="3" ry="3" style="stroke: #038048; stroke-width: 1.0;"/><text fill="#000000" font-family="sans-serif" font-size="11" lengthAdjust="spacingAndGlyphs" textLength="130" x="1294" y="201.6221">SignupForm(model : Model)</text><ellipse cx="1285" cy="211.0391" fill="#84BE84" rx="3" ry="3" style="stroke: #038048; stroke-width: 1.0;"/><text fill="#000000" font-family="sans-serif" font-size="11" lengthAdjust="spacingAndGlyphs" textLength="216" x="1294" y="215.458">LogOut(model : Model,session : HttpSession)</text><ellipse cx="1285" cy="224.875" fill="#84BE84" rx="3" ry="3" style="stroke: #038048; stroke-width: 1.0;"/><text fill="#000000" font-family="sans-serif" font-size="11" lengthAdjust="spacingAndGlyphs" textLength="259" x="1294" y="229.2939">LinkparnerForm(model : Model, session : HttpSession)</text><ellipse cx="1285" cy="238.7109" fill="#84BE84" rx="3" ry="3" style="stroke: #038048; stroke-width: 1.0;"/><text fill="#000000" font-family="sans-serif" font-size="11" lengthAdjust="spacingAndGlyphs" textLength="305" x="1294" y="243.1299">Linkpartner(email : String, model : Model, session : HttpSession)</text><!--MD5=[b4b9f78c162075bdde6353e565b3699c]
class UserRestController--><rect codeLine="42" fill="#FEFECE" filter="url(#f1d9ksxqhe1xx6)" height="111.5313" id="UserRestController" style="stroke: #A80036; stroke-width: 1.5;" width="392" x="885" y="392.5"/><ellipse cx="1023.25" cy="412.5938" fill="#ADD1B2" rx="11" ry="11" style="stroke: #A80036; stroke-width: 1.0;"/><path d="M1026.0156,408.4688 Q1026.1719,408.25 1026.3594,408.1406 Q1026.5469,408.0313 1026.7656,408.0313 Q1027.1406,408.0313 1027.375,408.2969 Q1027.6094,408.5469 1027.6094,409.1563 L1027.6094,410.6094 Q1027.6094,411.2188 1027.375,411.4844 Q1027.1406,411.75 1026.7656,411.75 Q1026.4219,411.75 1026.2188,411.5469 Q1026.0156,411.3594 1025.9063,410.8438 Q1025.8594,410.4844 1025.6719,410.2969 Q1025.3438,409.9219 1024.7344,409.7031 Q1024.125,409.4844 1023.5,409.4844 Q1022.7344,409.4844 1022.0938,409.8125 Q1021.4688,410.1406 1020.9688,410.8906 Q1020.4844,411.6406 1020.4844,412.6719 L1020.4844,413.7656 Q1020.4844,415 1021.375,415.8281 Q1022.2656,416.6406 1023.8594,416.6406 Q1024.7969,416.6406 1025.4531,416.3906 Q1025.8438,416.2344 1026.2656,415.7969 Q1026.5313,415.5313 1026.6719,415.4531 Q1026.8281,415.375 1027.0313,415.375 Q1027.3594,415.375 1027.6094,415.6406 Q1027.875,415.8906 1027.875,416.2344 Q1027.875,416.5781 1027.5313,416.9844 Q1027.0313,417.5625 1026.2344,417.8906 Q1025.1563,418.3438 1023.8594,418.3438 Q1022.3438,418.3438 1021.1406,417.7188 Q1020.1563,417.2188 1019.4688,416.1563 Q1018.7813,415.0781 1018.7813,413.7969 L1018.7813,412.6406 Q1018.7813,411.3125 1019.3906,410.1719 Q1020.0156,409.0156 1021.1094,408.4063 Q1022.2031,407.7813 1023.4375,407.7813 Q1024.1719,407.7813 1024.8125,407.9531 Q1025.4688,408.1094 1026.0156,408.4688 Z "/><text fill="#000000" font-family="sans-serif" font-size="12" font-style="italic" lengthAdjust="spacingAndGlyphs" textLength="105" x="1044.75" y="409.957">«@RestController»</text><text fill="#000000" font-family="sans-serif" font-size="12" lengthAdjust="spacingAndGlyphs" textLength="107" x="1043.75" y="425.0508">UserRestController</text><line style="stroke: #A80036; stroke-width: 1.5;" x1="886" x2="1276" y1="432.6875" y2="432.6875"/><rect fill="none" height="6" style="stroke: #C82930; stroke-width: 1.0;" width="6" x="893" y="440.6875"/><text fill="#000000" font-family="sans-serif" font-size="11" lengthAdjust="spacingAndGlyphs" textLength="128" x="905" y="448.1064">userService : UserService</text><rect fill="none" height="6" style="stroke: #C82930; stroke-width: 1.0;" width="6" x="893" y="454.5234"/><text fill="#000000" font-family="sans-serif" font-size="11" lengthAdjust="spacingAndGlyphs" textLength="136" x="905" y="461.9424">nameService : NameService</text><line style="stroke: #A80036; stroke-width: 1.5;" x1="886" x2="1276" y1="468.3594" y2="468.3594"/><ellipse cx="896" cy="479.3594" fill="#84BE84" rx="3" ry="3" style="stroke: #038048; stroke-width: 1.0;"/><text fill="#000000" font-family="sans-serif" font-size="11" lengthAdjust="spacingAndGlyphs" textLength="366" x="905" y="483.7783">UserRestController (userService: UserService, nameService: NameService)</text><ellipse cx="896" cy="493.1953" fill="#84BE84" rx="3" ry="3" style="stroke: #038048; stroke-width: 1.0;"/><text fill="#000000" font-family="sans-serif" font-size="11" lengthAdjust="spacingAndGlyphs" textLength="357" x="905" y="497.6143">checkLogin(email:String, password:String, session:HttpSession) : boolean</text><!--MD5=[e4ac4745f81aec2db60ad4ddae80b659]
class UserService--><rect codeLine="48" fill="#FEFECE" filter="url(#f1d9ksxqhe1xx6)" height="153.0391" id="UserService" style="stroke: #A80036; stroke-width: 1.5;" width="316" x="923" y="76"/><ellipse cx="1043.25" cy="96.0938" fill="#B4A7E5" rx="11" ry="11" style="stroke: #A80036; stroke-width: 1.0;"/><path d="M1044.2031,92.7344 L1044.2031,99.3906 L1045.9219,99.3906 Q1046.5313,99.3906 1046.7969,99.625 Q1047.0625,99.8594 1047.0625,100.25 Q1047.0625,100.625 1046.7969,100.8594 Q1046.5313,101.0938 1045.9219,101.0938 L1040.7813,101.0938 Q1040.1719,101.0938 1039.9063,100.8594 Q1039.6406,100.625 1039.6406,100.2344 Q1039.6406,99.8594 1039.9063,99.625 Q1040.1719,99.3906 1040.7813,99.3906 L1042.5,99.3906 L1042.5,92.7344 L1040.7813,92.7344 Q1040.1719,92.7344 1039.9063,92.5 Q1039.6406,92.2656 1039.6406,91.875 Q1039.6406,91.5 1039.9063,91.2656 Q1040.1719,91.0313 1040.7813,91.0313 L1045.9219,91.0313 Q1046.5313,91.0313 1046.7969,91.2656 Q1047.0625,91.5 1047.0625,91.875 Q1047.0625,92.2656 1046.7969,92.5 Q1046.5313,92.7344 1045.9219,92.7344 L1044.2031,92.7344 Z "/><text fill="#000000" font-family="sans-serif" font-size="12" font-style="italic" lengthAdjust="spacingAndGlyphs" textLength="62" x="1066.25" y="93.457">«Interface»</text><text fill="#000000" font-family="sans-serif" font-size="12" font-style="italic" lengthAdjust="spacingAndGlyphs" textLength="67" x="1063.75" y="108.5508">UserService</text><line style="stroke: #A80036; stroke-width: 1.5;" x1="924" x2="1238" y1="116.1875" y2="116.1875"/><line style="stroke: #A80036; stroke-width: 1.5;" x1="924" x2="1238" y1="124.1875" y2="124.1875"/><text fill="#000000" font-family="sans-serif" font-size="11" lengthAdjust="spacingAndGlyphs" textLength="115" x="929" y="139.6064">save( user: User): User</text><text fill="#000000" font-family="sans-serif" font-size="11" lengthAdjust="spacingAndGlyphs" textLength="114" x="929" y="153.4424">delete(user: User): void</text><text fill="#000000" font-family="sans-serif" font-size="11" lengthAdjust="spacingAndGlyphs" textLength="96" x="929" y="167.2783">findAll(): List&lt;User&gt;</text><text fill="#000000" font-family="sans-serif" font-size="11" lengthAdjust="spacingAndGlyphs" textLength="181" x="929" y="181.1143">findByName(name:String): List&lt;User&gt;</text><text fill="#000000" font-family="sans-serif" font-size="11" lengthAdjust="spacingAndGlyphs" textLength="304" x="929" y="194.9502">findByEmailAndPassword(email:String, password:String): User</text><text fill="#000000" font-family="sans-serif" font-size="11" lengthAdjust="spacingAndGlyphs" textLength="118" x="929" y="208.7861">findByEmail(email:String)</text><text fill="#000000" font-family="sans-serif" font-size="11" lengthAdjust="spacingAndGlyphs" textLength="162" x="929" y="222.6221">findById(id:Long): Optional&lt;User&gt;</text><!--MD5=[9701bdf3d257407216e8bdf4a96ec89b]
class UserServiceImplementation--><rect codeLine="57" fill="#FEFECE" filter="url(#f1d9ksxqhe1xx6)" height="180.7109" id="UserServiceImplementation" style="stroke: #A80036; stroke-width: 1.5;" width="364" x="486" y="358"/><ellipse cx="587.25" cy="378.0938" fill="#ADD1B2" rx="11" ry="11" style="stroke: #A80036; stroke-width: 1.0;"/><path d="M590.0156,373.9688 Q590.1719,373.75 590.3594,373.6406 Q590.5469,373.5313 590.7656,373.5313 Q591.1406,373.5313 591.375,373.7969 Q591.6094,374.0469 591.6094,374.6563 L591.6094,376.1094 Q591.6094,376.7188 591.375,376.9844 Q591.1406,377.25 590.7656,377.25 Q590.4219,377.25 590.2188,377.0469 Q590.0156,376.8594 589.9063,376.3438 Q589.8594,375.9844 589.6719,375.7969 Q589.3438,375.4219 588.7344,375.2031 Q588.125,374.9844 587.5,374.9844 Q586.7344,374.9844 586.0938,375.3125 Q585.4688,375.6406 584.9688,376.3906 Q584.4844,377.1406 584.4844,378.1719 L584.4844,379.2656 Q584.4844,380.5 585.375,381.3281 Q586.2656,382.1406 587.8594,382.1406 Q588.7969,382.1406 589.4531,381.8906 Q589.8438,381.7344 590.2656,381.2969 Q590.5313,381.0313 590.6719,380.9531 Q590.8281,380.875 591.0313,380.875 Q591.3594,380.875 591.6094,381.1406 Q591.875,381.3906 591.875,381.7344 Q591.875,382.0781 591.5313,382.4844 Q591.0313,383.0625 590.2344,383.3906 Q589.1563,383.8438 587.8594,383.8438 Q586.3438,383.8438 585.1406,383.2188 Q584.1563,382.7188 583.4688,381.6563 Q582.7813,380.5781 582.7813,379.2969 L582.7813,378.1406 Q582.7813,376.8125 583.3906,375.6719 Q584.0156,374.5156 585.1094,373.9063 Q586.2031,373.2813 587.4375,373.2813 Q588.1719,373.2813 588.8125,373.4531 Q589.4688,373.6094 590.0156,373.9688 Z "/><text fill="#000000" font-family="sans-serif" font-size="12" font-style="italic" lengthAdjust="spacingAndGlyphs" textLength="67" x="650.75" y="375.457">«@Service»</text><text fill="#000000" font-family="sans-serif" font-size="12" lengthAdjust="spacingAndGlyphs" textLength="153" x="607.75" y="390.5508">UserServiceImplementation</text><line style="stroke: #A80036; stroke-width: 1.5;" x1="487" x2="849" y1="398.1875" y2="398.1875"/><text fill="#000000" font-family="sans-serif" font-size="11" lengthAdjust="spacingAndGlyphs" textLength="133" x="492" y="413.6064">repository : UserRepository</text><line style="stroke: #A80036; stroke-width: 1.0;" x1="487" x2="849" y1="420.0234" y2="420.0234"/><ellipse cx="497" cy="431.0234" fill="#84BE84" rx="3" ry="3" style="stroke: #038048; stroke-width: 1.0;"/><text fill="#000000" font-family="sans-serif" font-size="11" lengthAdjust="spacingAndGlyphs" textLength="269" x="506" y="435.4424">UserServiceImplementation(userRepo : UserRepository)</text><ellipse cx="497" cy="444.8594" fill="#84BE84" rx="3" ry="3" style="stroke: #038048; stroke-width: 1.0;"/><text fill="#000000" font-family="sans-serif" font-size="11" lengthAdjust="spacingAndGlyphs" textLength="118" x="506" y="449.2783">save(user : User) : User</text><ellipse cx="497" cy="458.6953" fill="#84BE84" rx="3" ry="3" style="stroke: #038048; stroke-width: 1.0;"/><text fill="#000000" font-family="sans-serif" font-size="11" lengthAdjust="spacingAndGlyphs" textLength="91" x="506" y="463.1143">delete(user : User)</text><ellipse cx="497" cy="472.5313" fill="#84BE84" rx="3" ry="3" style="stroke: #038048; stroke-width: 1.0;"/><text fill="#000000" font-family="sans-serif" font-size="11" lengthAdjust="spacingAndGlyphs" textLength="99" x="506" y="476.9502">findAll() : List&lt;User&gt;</text><ellipse cx="497" cy="486.3672" fill="#84BE84" rx="3" ry="3" style="stroke: #038048; stroke-width: 1.0;"/><text fill="#000000" font-family="sans-serif" font-size="11" lengthAdjust="spacingAndGlyphs" textLength="202" x="506" y="490.7861">findAllByName(name : String) : List&lt;User&gt;</text><ellipse cx="497" cy="500.2031" fill="#84BE84" rx="3" ry="3" style="stroke: #038048; stroke-width: 1.0;"/><text fill="#000000" font-family="sans-serif" font-size="11" lengthAdjust="spacingAndGlyphs" textLength="338" x="506" y="504.6221">findByEmailAndPassword(email : String, password : Password) :User</text><ellipse cx="497" cy="514.0391" fill="#84BE84" rx="3" ry="3" style="stroke: #038048; stroke-width: 1.0;"/><text fill="#000000" font-family="sans-serif" font-size="11" lengthAdjust="spacingAndGlyphs" textLength="154" x="506" y="518.458">findByEmai(email : String) : User</text><ellipse cx="497" cy="527.875" fill="#84BE84" rx="3" ry="3" style="stroke: #038048; stroke-width: 1.0;"/><text fill="#000000" font-family="sans-serif" font-size="11" lengthAdjust="spacingAndGlyphs" textLength="171" x="506" y="532.2939">findById(id : Long) : Optional&lt;User&gt;</text><!--MD5=[3f908ccd3a2056432adfb9e2b53696ab]
class HomeController--><rect fill="#FEFECE" filter="url(#f1d9ksxqhe1xx6)" height="48" id="HomeController" style="stroke: #A80036; stroke-width: 1.5;" width="120" x="1312" y="424.5"/><ellipse cx="1327" cy="440.5" fill="#ADD1B2" rx="11" ry="11" style="stroke: #A80036; stroke-width: 1.0;"/><path d="M1329.7656,436.375 Q1329.9219,436.1563 1330.1094,436.0469 Q1330.2969,435.9375 1330.5156,435.9375 Q1330.8906,435.9375 1331.125,436.2031 Q1331.3594,436.4531 1331.3594,437.0625 L1331.3594,438.5156 Q1331.3594,439.125 1331.125,439.3906 Q1330.8906,439.6563 1330.5156,439.6563 Q1330.1719,439.6563 1329.9688,439.4531 Q1329.7656,439.2656 1329.6563,438.75 Q1329.6094,438.3906 1329.4219,438.2031 Q1329.0938,437.8281 1328.4844,437.6094 Q1327.875,437.3906 1327.25,437.3906 Q1326.4844,437.3906 1325.8438,437.7188 Q1325.2188,438.0469 1324.7188,438.7969 Q1324.2344,439.5469 1324.2344,440.5781 L1324.2344,441.6719 Q1324.2344,442.9063 1325.125,443.7344 Q1326.0156,444.5469 1327.6094,444.5469 Q1328.5469,444.5469 1329.2031,444.2969 Q1329.5938,444.1406 1330.0156,443.7031 Q1330.2813,443.4375 1330.4219,443.3594 Q1330.5781,443.2813 1330.7813,443.2813 Q1331.1094,443.2813 1331.3594,443.5469 Q1331.625,443.7969 1331.625,444.1406 Q1331.625,444.4844 1331.2813,444.8906 Q1330.7813,445.4688 1329.9844,445.7969 Q1328.9063,446.25 1327.6094,446.25 Q1326.0938,446.25 1324.8906,445.625 Q1323.9063,445.125 1323.2188,444.0625 Q1322.5313,442.9844 1322.5313,441.7031 L1322.5313,440.5469 Q1322.5313,439.2188 1323.1406,438.0781 Q1323.7656,436.9219 1324.8594,436.3125 Q1325.9531,435.6875 1327.1875,435.6875 Q1327.9219,435.6875 1328.5625,435.8594 Q1329.2188,436.0156 1329.7656,436.375 Z "/><text fill="#000000" font-family="sans-serif" font-size="12" lengthAdjust="spacingAndGlyphs" textLength="88" x="1341" y="445.4102">HomeController</text><line style="stroke: #A80036; stroke-width: 1.5;" x1="1313" x2="1431" y1="456.5" y2="456.5"/><line style="stroke: #A80036; stroke-width: 1.5;" x1="1313" x2="1431" y1="464.5" y2="464.5"/><!--MD5=[e8e637a59c2fc52d5708d19a4eb1165d]
reverse link UserService to UserServiceImplementation--><path codeLine="78" d="M958.4,240.78 C906.54,277.69 846.19,320.66 793.97,357.82 " fill="none" id="UserService-backto-UserServiceImplementation" style="stroke: #A80036; stroke-width: 1.0;"/><polygon fill="none" points="954.56,234.92,974.91,229.02,962.68,246.32,954.56,234.92" style="stroke: #A80036; stroke-width: 1.0;"/><!--MD5=[709706a462c168a665a9ad9675bd6338]
reverse link UserRepository to UserServiceImplementation--><path codeLine="80" d="M668,268.91 C668,298.4 668,329.67 668,357.66 " fill="none" id="UserRepository-backto-UserServiceImplementation" style="stroke: #A80036; stroke-width: 1.0;"/><polygon fill="#A80036" points="668,263.81,664,272.81,668,268.81,672,272.81,668,263.81" style="stroke: #A80036; stroke-width: 1.0;"/><!--MD5=[906d166586e28be816fa54ee7318c4a4]
reverse link UserService to UserRestController--><path codeLine="82" d="M1081,234.35 C1081,284.63 1081,347.95 1081,392.47 " fill="none" id="UserService-backto-UserRestController" style="stroke: #A80036; stroke-width: 1.0;"/><polygon fill="#A80036" points="1081,229.21,1077,238.21,1081,234.21,1085,238.21,1081,229.21" style="stroke: #A80036; stroke-width: 1.0;"/><!--MD5=[35bc21f528fac7fbf3f96559e43e75dc]
reverse link UserService to HomeController--><path codeLine="84" d="M1167.68,232.7 C1207.37,269.87 1254.48,315.3 1295,358 C1315.6,379.71 1337.75,405.76 1352.98,424.15 " fill="none" id="UserService-backto-HomeController" style="stroke: #A80036; stroke-width: 1.0;"/><polygon fill="#A80036" points="1163.87,229.12,1167.719,238.1856,1167.5248,232.5321,1173.1783,232.3379,1163.87,229.12" style="stroke: #A80036; stroke-width: 1.0;"/><!--MD5=[e0d71544cec5f7b804991c1f57f234ea]
@startuml User
Class  User <<@Entity >> {
    -id : Long
    -name : String
    -email : String
    -password : String
    -availableNames : ArrayList<Integer>
    -approvedNames : ArrayList<Integer>
    -linkedPartners : ArrayList<Long>
    - -
    +User()
    +User(name : String, email : String, password : String, availableNames : ArrayList<Integer>)
    +approveName(id : Integer) : ArrayList<Integer>
    +disapproveName(id : Integer) : ArrayList<Integer>
    +addLinkedPartner(id : Long)
    +removeLinkedPartner(id : Long) : boolean
    +getAvailableNamesSize() : int
    +getRandomNameId() : Integer
    +getRandomNameId(genderList : ArrayList<Integer>) : Integer
    +[Getters & Setters]
}
Interface UserRepository<<interface>> {
    delete(user User)
    findAll() : List<User>
    findByName(name : String) : List<User>
    findByEmailAndPassword(email : String, password : String) : User
    findByEmail(email : String) : User
    findById(id : Long ) : Optional<User>
}
class UserController <<@Controller>> {
    -userService : UserService
    -nameService : NameService
    +UserController (userService : UserService, nameService : NameService)
    +Login(model : Model, session:HttpSession)
    +PostLogin(email : String, password:String, model:Model)
    +Signup(user:User, result : BindingResult, model:Model)
    +SignupForm(model : Model)
    +LogOut(model : Model,session : HttpSession)
    +LinkparnerForm(model : Model, session : HttpSession)
    +Linkpartner(email : String, model : Model, session : HttpSession)

}
class UserRestController <<@RestController>> {
    -userService : UserService
    -nameService : NameService
    +UserRestController (userService: UserService, nameService: NameService)
    +checkLogin(email:String, password:String, session:HttpSession) : boolean
}
Interface UserService <<Interface>> {
    save( user: User): User
    delete(user: User): void
    findAll(): List<User>
    findByName(name:String): List<User>
    findByEmailAndPassword(email:String, password:String): User
    findByEmail(email:String)
    findById(id:Long): Optional<User>
}
class UserServiceImplementation <<@Service>> {
    repository : UserRepository
    - -
    +UserServiceImplementation(userRepo : UserRepository)
    +save(user : User) : User
    +delete(user : User)
    +findAll() : List<User>
    +findAllByName(name : String) : List<User>
    +findByEmailAndPassword(email : String, password : Password) :User
    +findByEmai(email : String) : User
    +findById(id : Long) : Optional<User>
}
Interface UserRepository<<interface>> {
    delete(user User)
    findAll() : List<User>
    findByName(name : String) : List<User>
    findByEmailAndPassword(email : String, password : String) : User
    findByEmail(email : String) : User
    findById(id : Long ) : Optional<User>
}

UserService <|- - UserServiceImplementation

UserRepository <- - UserServiceImplementation

UserService <- - UserRestController

UserService <- - HomeController
@enduml

PlantUML version 1.2020.18(Wed Sep 30 19:40:44 GMT 2020)
(GPL source distribution)
Java Runtime: OpenJDK Runtime Environment
JVM: OpenJDK 64-Bit Server VM
Default Encoding: Cp1252
Language: en
Country: US
--></g></svg>